<?xml version="1.0" encoding="utf-8"?>
<!-- Generator: Adobe Illustrator 23.0.3, SVG Export Plug-In . SVG Version: 6.00 Build 0)  -->
<svg version="1.1" id="Layer_1" xmlns="http://www.w3.org/2000/svg" xmlns:xlink="http://www.w3.org/1999/xlink" x="0px" y="0px"
	 viewBox="0 0 16 16" style="enable-background:new 0 0 16 16;" xml:space="preserve">
<style type="text/css">
	.st0{fill:#F2F2F2;}
	.st1{fill:#272727;}
</style>
<g>
	<g>
		<path class="st0" d="M0,11.7V4.3h5.3v1.1h1.1v1.1h1.1v3.2H6.4v1.1H5.3v1.1H0z M2.1,10.7h2.1V9.6h1.1V6.4H4.3V5.3H2.1V10.7z"/>
		<path class="st1" d="M5.3,4.3H0v7.5h5.3v-1.1h1.1V9.6h1.1V6.4H6.4V5.3H5.3V4.3L5.3,4.3z M2.1,10.7V5.3h2.1v1.1h1.1v3.2H4.3v1.1
			H2.1L2.1,10.7z"/>
	</g>
	<g>
		<path class="st0" d="M9.6,11.7v-1.1H8.5V5.3h1.1V4.3h5.3v1.1H16v5.3h-1.1v1.1H9.6z M10.7,10.7h3.2V5.3h-3.2V10.7z"/>
		<path class="st1" d="M14.9,4.3H9.6v1.1H8.5v5.3h1.1v1.1h5.3v-1.1H16V5.3h-1.1V4.3L14.9,4.3z M10.7,10.7V5.3h3.2v5.3H10.7
			L10.7,10.7z"/>
	</g>
</g>
</svg>
