<?xml version="1.0" encoding="utf-8"?>
<!-- Generator: Adobe Illustrator 23.0.3, SVG Export Plug-In . SVG Version: 6.00 Build 0)  -->
<svg version="1.1" id="Layer_1" xmlns="http://www.w3.org/2000/svg" xmlns:xlink="http://www.w3.org/1999/xlink" x="0px" y="0px"
	 viewBox="0 0 84 88" style="enable-background:new 0 0 84 88;" xml:space="preserve">
<style type="text/css">
	.st0{fill:#BFAE5A;}
	.st1{fill:none;stroke:#000000;stroke-width:4;stroke-miterlimit:10;}
	.st2{fill:#F2F2F2;}
	.st3{display:none;}
	.st4{display:inline;fill:#FFFFFF;}
	.st5{fill:#FFFFFF;}
</style>
<g>
	<g>
		<rect x="4" y="8" class="st0" width="76" height="76"/>
		<line class="st1" x1="4" y1="6" x2="80" y2="6"/>
		<line class="st1" x1="4" y1="86" x2="80" y2="86"/>
		<line class="st1" x1="2" y1="84" x2="2" y2="8"/>
		<line class="st1" x1="82" y1="84" x2="82" y2="8"/>
	</g>
	<g>
		<g>
			<rect x="24" y="2.2" class="st2" width="36" height="8"/>
			<path d="M58,4.2v4H26v-4H58 M62,0.2H22v12h40V0.2L62,0.2z"/>
		</g>
		<path class="st1" d="M59.1,0"/>
		<path class="st1" d="M24.9,0"/>
		<path class="st1" d="M59.1,8"/>
		<path class="st1" d="M24.9,8"/>
		<path class="st1" d="M24,0.2"/>
		<path class="st1" d="M24,7.8"/>
		<path class="st1" d="M60,0.2"/>
		<path class="st1" d="M60,7.8"/>
	</g>
	<g class="st3">
		<path class="st4" d="M12,60V32h20v4h4v4h4v12h-4v4h-4v4H12z M20,56h8v-4h4V40h-4v-4h-8V56z"/>
		<path class="st4" d="M48,60v-4h-4V36h4v-4h20v4h4v20h-4v4H48z M52,56h12V36H52V56z"/>
	</g>
</g>
<g>
	<path class="st5" d="M16,58v-4h-4V42h4v-4h16v-8h8v28H16z M20,54h12V42H20V54z"/>
	<path class="st5" d="M48,58v-4h-4V42h4v-4h20v4h4v12h-4v4H48z M52,54h12V42H52V54z"/>
</g>
</svg>
