<svg id="Layer_1" data-name="Layer 1" xmlns="http://www.w3.org/2000/svg" viewBox="0 0 84 87.8"><defs><style>.cls-1{fill:#bfae5a;}.cls-2{fill:none;stroke:#000;stroke-miterlimit:10;stroke-width:4px;}.cls-3{fill:#f2f2f2;}.cls-4{fill:#fff;}</style></defs><title>do</title><rect class="cls-1" x="4" y="7.8" width="76" height="76"/><line class="cls-2" x1="4" y1="5.8" x2="80" y2="5.8"/><line class="cls-2" x1="4" y1="85.8" x2="80" y2="85.8"/><line class="cls-2" x1="2" y1="83.8" x2="2" y2="7.8"/><line class="cls-2" x1="82" y1="83.8" x2="82" y2="7.8"/><rect class="cls-3" x="24" y="2" width="36" height="8"/><path d="M58,4.2v4H26v-4H58m4-4H22v12H62V.2Z" transform="translate(0 -0.2)"/><path class="cls-2" d="M59.1,0" transform="translate(0 -0.2)"/><path class="cls-2" d="M24.9,0" transform="translate(0 -0.2)"/><path class="cls-2" d="M59.1,8" transform="translate(0 -0.2)"/><path class="cls-2" d="M24.9,8" transform="translate(0 -0.2)"/><path class="cls-2" d="M24,.2" transform="translate(0 -0.2)"/><path class="cls-2" d="M24,7.8" transform="translate(0 -0.2)"/><path class="cls-2" d="M60,.2" transform="translate(0 -0.2)"/><path class="cls-2" d="M60,7.8" transform="translate(0 -0.2)"/><path class="cls-4" d="M12,60V32H32v4h4v4h4V52H36v4H32v4Zm8-4h8V52h4V40H28V36H20Z" transform="translate(0 -0.2)"/><path class="cls-4" d="M48,60V56H44V36h4V32H68v4h4V56H68v4Zm4-4H64V36H52Z" transform="translate(0 -0.2)"/></svg>